<svg xmlns="http://www.w3.org/2000/svg" viewBox="0 0 26 29.71"><defs><style>.cls-1{fill:#383838;}</style></defs><title>bell</title><g id="Capa_2" data-name="Capa 2"><g id="Capa_1-2" data-name="Capa 1"><path class="cls-1" d="M13,29.71A3.71,3.71,0,0,0,16.71,26H9.29A3.71,3.71,0,0,0,13,29.71ZM25.5,21c-1.12-1.21-3.22-3-3.22-9a9.15,9.15,0,0,0-7.42-9V1.86a1.86,1.86,0,1,0-3.72,0V3.07a9.15,9.15,0,0,0-7.42,9c0,5.94-2.1,7.75-3.22,9A1.81,1.81,0,0,0,0,22.29a1.85,1.85,0,0,0,1.86,1.85H24.14A1.85,1.85,0,0,0,26,22.29,1.81,1.81,0,0,0,25.5,21Z"/></g></g></svg>