<svg xmlns="http://www.w3.org/2000/svg" viewBox="0 0 59.69 49.43"><defs><style>.cls-1{fill:#162a50;}</style></defs><title>comisvg</title><g id="Capa_2" data-name="Capa 2"><g id="Capa_1-2" data-name="Capa 1"><path class="cls-1" d="M24.81,5.41C15.48,10.26,8.58,19.59,8.58,29.29a9.32,9.32,0,0,1,5.78-2.06c6.72,0,10.82,4.85,10.82,11.2a11,11,0,0,1-11.38,11C6.34,49.43,0,42.72,0,33.2,0,17.53,11,4.85,21.82,0Zm34.5,0C50,10.26,43.09,19.59,42.9,29.29a10.36,10.36,0,0,1,6-2.06c6.53,0,10.82,4.85,10.82,11.2a11.13,11.13,0,0,1-11.57,11c-7.27,0-13.61-6.71-13.61-16.23C34.51,17.53,45.32,4.85,56.33,0Z"/></g></g></svg>