<svg xmlns="http://www.w3.org/2000/svg" viewBox="0 0 112.85 151.83"><defs><style>.cls-1{opacity:0.85;}.cls-2{fill:none;stroke:#50a9d0;stroke-linecap:round;stroke-linejoin:round;}</style></defs><title>globo</title><g id="Capa_2" data-name="Capa 2"><g id="Capa_1-2" data-name="Capa 1"><g class="cls-1"><path class="cls-2" d="M60.49,131h39.9a3.9,3.9,0,0,1,3.9,3.9v9.3a0,0,0,0,1,0,0H56.59a0,0,0,0,1,0,0v-9.3A3.9,3.9,0,0,1,60.49,131Z" transform="translate(-28.9 21.62) rotate(-13)"/><circle class="cls-2" cx="59.93" cy="52.88" r="47.65" transform="translate(-19.92 49.33) rotate(-38.88)"/><path class="cls-2" d="M82.15,95,37.7,10.73,32.15.5a59.29,59.29,0,0,0,55.3,104.9L82,95.1"/><ellipse class="cls-2" cx="42.59" cy="19.99" rx="29.78" ry="10.47" transform="translate(-4.41 22.17) rotate(-27.8)"/><path class="cls-2" d="M50.92,99.66a47.6,47.6,0,0,0,52.69-27.78A47.6,47.6,0,0,0,50.92,99.66Z"/><ellipse class="cls-2" cx="59.93" cy="52.88" rx="23.82" ry="47.65" transform="translate(-17.75 34.05) rotate(-27.8)"/><line class="cls-2" x1="17.78" y1="75.11" x2="102.08" y2="30.66"/><line class="cls-2" x1="73.76" y1="110.59" x2="78.69" y2="131.11"/><line class="cls-2" x1="53.1" y1="151.33" x2="112.35" y2="137.12"/></g></g></g></svg>