<svg xmlns="http://www.w3.org/2000/svg" viewBox="0 0 189.33 142"><defs><style>.cls-1{fill:#e9e9e9;}</style></defs><title>img-example</title><g id="Capa_2" data-name="Capa 2"><g id="Capa_1-2" data-name="Capa 1"><path class="cls-1" d="M171.58,142H17.75A17.75,17.75,0,0,1,0,124.25V17.75A17.75,17.75,0,0,1,17.75,0H171.58a17.75,17.75,0,0,1,17.75,17.75v106.5A17.75,17.75,0,0,1,171.58,142ZM41.42,20.71A20.71,20.71,0,1,0,62.13,41.42,20.71,20.71,0,0,0,41.42,20.71ZM23.67,118.33h142V76.92L133.3,44.55a4.44,4.44,0,0,0-6.27,0L76.92,94.67,56.39,74.14a4.43,4.43,0,0,0-6.28,0L23.67,100.58Z"/></g></g></svg>