<svg xmlns="http://www.w3.org/2000/svg" viewBox="0 0 23.78 22.69"><defs><style>.cls-1{fill:#fff;}</style></defs><title>instag</title><g id="Capa_2" data-name="Capa 2"><g id="Capa_1-2" data-name="Capa 1"><path class="cls-1" d="M16.44,22.69H7.33A7.34,7.34,0,0,1,0,15.36v-8A7.34,7.34,0,0,1,7.33,0h9.11a7.34,7.34,0,0,1,7.34,7.33v8A7.34,7.34,0,0,1,16.44,22.69ZM7.33,1.63a5.71,5.71,0,0,0-5.7,5.7v8a5.7,5.7,0,0,0,5.7,5.7h9.11a5.71,5.71,0,0,0,5.71-5.7v-8a5.71,5.71,0,0,0-5.71-5.7Z"/><path class="cls-1" d="M11.89,17.87a6.53,6.53,0,1,1,6.53-6.52A6.53,6.53,0,0,1,11.89,17.87Zm0-11.42a4.9,4.9,0,1,0,4.9,4.9A4.91,4.91,0,0,0,11.89,6.45Z"/><path class="cls-1" d="M19.67,5a1.36,1.36,0,1,1-1.35-1.35A1.35,1.35,0,0,1,19.67,5Z"/></g></g></svg>