<svg xmlns="http://www.w3.org/2000/svg" viewBox="0 0 117.12 119.72"><defs><style>.cls-1,.cls-2{fill:none;stroke:#fff;stroke-miterlimit:10;stroke-width:4px;}.cls-2{stroke-linecap:round;}</style></defs><title>lamp</title><g id="Capa_2" data-name="Capa 2"><g id="Capa_1-2" data-name="Capa 1"><path class="cls-1" d="M56.05,100.7l-29.4-10a5.94,5.94,0,0,1-3.71-7.53h0a5.94,5.94,0,0,1,7.53-3.72l29.4,10A5.93,5.93,0,0,1,63.58,97h0A5.93,5.93,0,0,1,56.05,100.7Z"/><path class="cls-1" d="M52.19,112.08l-29.4-10a5.94,5.94,0,0,1-3.72-7.53h0a6,6,0,0,1,7.54-3.72l29.4,10a5.94,5.94,0,0,1,3.71,7.53h0A5.94,5.94,0,0,1,52.19,112.08Z"/><path class="cls-1" d="M26.05,48.75h0l.09.29a80.35,80.35,0,0,1,2.92,30.13L60.6,89.58A80.65,80.65,0,0,1,80.87,67.11l.25-.18h0c.86-.62,1.7-1.27,2.5-2A35.83,35.83,0,1,0,25.21,45.68C25.44,46.72,25.73,47.74,26.05,48.75Z"/><path class="cls-1" d="M24.39,102.78a14.16,14.16,0,0,0,25.82,8.77Z"/><path class="cls-1" d="M38.93,82.27l9.38-28.4a5.33,5.33,0,1,0-6.74,3.39L52.82,61"/><path class="cls-1" d="M51.3,86.35,60.67,58a5.33,5.33,0,1,1,3.39,6.73L52.82,61"/><line class="cls-2" x1="100.87" y1="58.88" x2="110.37" y2="62.01"/><line class="cls-2" x1="105.23" y1="46.91" x2="115.12" y2="45.42"/><line class="cls-2" x1="94.23" y1="69.14" x2="101.28" y2="76.23"/><line class="cls-2" x1="12.66" y1="29.76" x2="3.16" y2="26.62"/><line class="cls-2" x1="16.28" y1="17.55" x2="9.23" y2="10.46"/><line class="cls-2" x1="11.89" y1="41.96" x2="2" y2="43.45"/></g></g></svg>