<svg xmlns="http://www.w3.org/2000/svg" viewBox="0 0 249.96 55.39"><defs><style>.cls-1{font-size:17.58px;font-family:GoudyOldStyleT-Bold, Goudy Old Style;font-weight:700;}.cls-2{letter-spacing:-0.03em;}.cls-3{fill:#50a9d0;}.cls-4{fill:none;stroke:#000;stroke-miterlimit:10;}</style></defs><title>logofullcolor</title><g id="Capa_2" data-name="Capa 2"><g id="Capa_1-2" data-name="Capa 1"><text class="cls-1" transform="translate(0.23 50.82)">AP<tspan class="cls-2" x="22.93" y="0">R</tspan><tspan x="34.57" y="0">OB</tspan><tspan class="cls-3" x="60.03" y="0">AR</tspan></text><path d="M26.64,1.35V27.61s6.06-2,8.76-2a19.89,19.89,0,0,1,6.06,1.35V2s-3.37-2-5.39-2S26.64,1.35,26.64,1.35Z"/><path d="M57.62,1.35V27.61s-6.06-2-8.75-2a19.8,19.8,0,0,0-6.06,1.35V2s3.36-2,5.38-2S57.62,1.35,57.62,1.35Z"/><polyline class="cls-4" points="24.62 1.35 24.62 29.63 38.31 29.63 46.17 29.63 59.64 29.63 59.64 1.35"/><rect x="38.09" y="29.63" width="8.08" height="2.02"/><path class="cls-3" d="M117.93,9.76c0,.33-.06.66-.07,1s0,.55,0,.72,0,.41,0,.59,0,.35,0,.49h-.3a8.7,8.7,0,0,0-.26-1.46,1.25,1.25,0,0,0-.55-.77,2.47,2.47,0,0,0-1.23-.24h-.72v7.53a2.52,2.52,0,0,0,.1.79.59.59,0,0,0,.39.36,3.81,3.81,0,0,0,.85.12v.26l-.87,0H113.1l-.84,0v-.26a3.62,3.62,0,0,0,.84-.12.55.55,0,0,0,.39-.36,2.26,2.26,0,0,0,.1-.79V10.06h-.71a2.47,2.47,0,0,0-1.23.24,1.27,1.27,0,0,0-.56.77,8.84,8.84,0,0,0-.25,1.46h-.3c0-.14,0-.3,0-.49s0-.38,0-.59,0-.41,0-.72,0-.64-.08-1l1.21,0,1.32,0h2.4l1.32,0Z"/><path class="cls-3" d="M121.35,12.12a2.38,2.38,0,0,1,1.82.71,3.21,3.21,0,0,1,.65,2.21h-4.67v-.26h3.41a4.12,4.12,0,0,0-.11-1.19,2,2,0,0,0-.41-.88.94.94,0,0,0-.74-.33,1.38,1.38,0,0,0-1.08.6,3.64,3.64,0,0,0-.56,1.94l0,.05c0,.13,0,.28,0,.44s0,.31,0,.47a3.83,3.83,0,0,0,.29,1.55,2.43,2.43,0,0,0,.76,1,1.67,1.67,0,0,0,1,.33,2.08,2.08,0,0,0,1.1-.29,2.19,2.19,0,0,0,.85-1l.26.11a2.53,2.53,0,0,1-.47.84,2.42,2.42,0,0,1-.84.67,2.51,2.51,0,0,1-1.16.26,3,3,0,0,1-1.64-.44,2.8,2.8,0,0,1-1-1.21,4.16,4.16,0,0,1-.36-1.78,4.89,4.89,0,0,1,.37-2,2.89,2.89,0,0,1,1-1.3A2.8,2.8,0,0,1,121.35,12.12Z"/><path class="cls-3" d="M129.89,19.22a1.44,1.44,0,0,1-1.64-1.58,1.5,1.5,0,0,1,.27-.92,2.12,2.12,0,0,1,.7-.59,5.49,5.49,0,0,1,.89-.4l.9-.32a3.15,3.15,0,0,0,.69-.36.6.6,0,0,0,.27-.5v-.82a1.73,1.73,0,0,0-.16-.85.78.78,0,0,0-.45-.39,1.72,1.72,0,0,0-.62-.1,3.07,3.07,0,0,0-.71.09,1,1,0,0,0-.6.39.78.78,0,0,1,.44.26.8.8,0,0,1,.18.54.69.69,0,0,1-.21.53.81.81,0,0,1-.54.19.62.62,0,0,1-.56-.25.89.89,0,0,1-.18-.55.81.81,0,0,1,.17-.55,1.91,1.91,0,0,1,.44-.4,2.84,2.84,0,0,1,.78-.36,3.42,3.42,0,0,1,1.09-.16,3.06,3.06,0,0,1,.93.13,1.73,1.73,0,0,1,.64.36,1.51,1.51,0,0,1,.45.78,4.94,4.94,0,0,1,.1,1.09v3.68a1,1,0,0,0,.09.47.36.36,0,0,0,.32.15.7.7,0,0,0,.33-.08,1.56,1.56,0,0,0,.27-.2l.14.23a3.71,3.71,0,0,1-.53.35,1.39,1.39,0,0,1-.67.14,1,1,0,0,1-.91-.36A1.51,1.51,0,0,1,132,18a2.2,2.2,0,0,1-1,.94A2.72,2.72,0,0,1,129.89,19.22Zm.59-.53a1.56,1.56,0,0,0,.78-.23,2.38,2.38,0,0,0,.71-.78V15.09a1.34,1.34,0,0,1-.61.46c-.28.12-.57.24-.86.38a2.51,2.51,0,0,0-.77.55,1.46,1.46,0,0,0-.31,1,1.23,1.23,0,0,0,.3.91A1,1,0,0,0,130.48,18.69Z"/><path class="cls-3" d="M138,12.12a3.24,3.24,0,0,1,.82.11,2.41,2.41,0,0,1,.71.32A1.45,1.45,0,0,1,140,13a1.13,1.13,0,0,1,.15.57.66.66,0,0,1-.7.74.85.85,0,0,1-.51-.17.61.61,0,0,1-.21-.49.69.69,0,0,1,.16-.49.68.68,0,0,1,.39-.24,1,1,0,0,0-.47-.4,1.73,1.73,0,0,0-.72-.16,1.6,1.6,0,0,0-.66.16,1.83,1.83,0,0,0-.61.52,3,3,0,0,0-.45,1,6.24,6.24,0,0,0-.17,1.56,5.49,5.49,0,0,0,.26,1.86,2,2,0,0,0,.7,1,1.59,1.59,0,0,0,.94.3,2.1,2.1,0,0,0,1-.3,2.3,2.3,0,0,0,.87-1.06l.25.09a2.84,2.84,0,0,1-.43.85,2.39,2.39,0,0,1-.8.71,2.32,2.32,0,0,1-1.2.28,2.69,2.69,0,0,1-1.48-.42,3,3,0,0,1-1-1.22,4,4,0,0,1-.4-1.87,4.29,4.29,0,0,1,.4-1.91,3.16,3.16,0,0,1,1.09-1.3A2.81,2.81,0,0,1,138,12.12Z"/><path class="cls-3" d="M144.38,12.12a3.06,3.06,0,0,1,1.52.38A2.6,2.6,0,0,1,147,13.66a4.55,4.55,0,0,1,.41,2.06,4.49,4.49,0,0,1-.41,2.06,2.65,2.65,0,0,1-1.08,1.16,3.29,3.29,0,0,1-3,0,2.62,2.62,0,0,1-1.09-1.16,4.5,4.5,0,0,1-.4-2.06,4.55,4.55,0,0,1,.4-2.06,2.57,2.57,0,0,1,1.09-1.16A3.08,3.08,0,0,1,144.38,12.12Zm0,.27a1.42,1.42,0,0,0-1.23.78,5,5,0,0,0-.49,2.55,4.93,4.93,0,0,0,.49,2.55,1.38,1.38,0,0,0,2.47,0,5.05,5.05,0,0,0,.48-2.55,5.08,5.08,0,0,0-.48-2.55A1.42,1.42,0,0,0,144.38,12.39Z"/><path class="cls-3" d="M152.76,12.12a2.12,2.12,0,0,1,.8.14,1.41,1.41,0,0,1,.57.37,1.33,1.33,0,0,1,.35.69,5.09,5.09,0,0,1,.09,1v3.53a1,1,0,0,0,.23.76,1.22,1.22,0,0,0,.78.2v.27l-.69,0-.9,0-.85,0-.63,0v-.27a.94.94,0,0,0,.67-.2,1.1,1.1,0,0,0,.2-.76V14.07a5.66,5.66,0,0,0,0-.75,1,1,0,0,0-.27-.56,1,1,0,0,0-.69-.21,1.41,1.41,0,0,0-.92.32,2.17,2.17,0,0,0-.63.86,3.06,3.06,0,0,0-.23,1.23v2.93a1.05,1.05,0,0,0,.2.76.92.92,0,0,0,.67.2v.27l-.63,0-.85,0-.9,0-.69,0v-.27a1.24,1.24,0,0,0,.78-.2,1,1,0,0,0,.23-.76V13.75a1.48,1.48,0,0,0-.21-.88,1,1,0,0,0-.8-.28v-.28a7.75,7.75,0,0,0,.82,0,5.87,5.87,0,0,0,.74,0,3.15,3.15,0,0,0,.64-.14v1.57a2.39,2.39,0,0,1,.94-1.23A2.25,2.25,0,0,1,152.76,12.12Zm4,0a2.21,2.21,0,0,1,.81.14,1.36,1.36,0,0,1,.91,1.06,5.09,5.09,0,0,1,.09,1v3.53a1,1,0,0,0,.23.76,1.24,1.24,0,0,0,.78.2v.27l-.69,0-.9,0-.85,0-.63,0v-.27a.92.92,0,0,0,.67-.2,1.05,1.05,0,0,0,.2-.76V14.07a5.66,5.66,0,0,0-.05-.75,1,1,0,0,0-.27-.56.94.94,0,0,0-.68-.21,1.54,1.54,0,0,0-1.28.69,2.75,2.75,0,0,0-.51,1.7l0-1.23a2.32,2.32,0,0,1,1-1.25A2.57,2.57,0,0,1,156.74,12.12Z"/><path class="cls-3" d="M162.24,12.16v8.13a.81.81,0,0,0,.34.76,1.89,1.89,0,0,0,.93.19v.28l-.8,0c-.35,0-.71,0-1.1,0s-.55,0-.81,0l-.62,0v-.28a1.09,1.09,0,0,0,.68-.17.86.86,0,0,0,.19-.65V13.75a1.48,1.48,0,0,0-.21-.88.92.92,0,0,0-.79-.28v-.28a7.63,7.63,0,0,0,.82,0,5.71,5.71,0,0,0,.73,0A2.88,2.88,0,0,0,162.24,12.16Zm2.12,0a2.19,2.19,0,0,1,1.75.84,3.67,3.67,0,0,1,.71,2.45,5.57,5.57,0,0,1-.31,1.85,3.36,3.36,0,0,1-1,1.47,2.53,2.53,0,0,1-1.75.58,2,2,0,0,1-1.08-.29,1.55,1.55,0,0,1-.61-.7l.13-.19a1.53,1.53,0,0,0,.54.62,1.43,1.43,0,0,0,.88.25,1.46,1.46,0,0,0,1.15-.46,2.7,2.7,0,0,0,.57-1.24,8.12,8.12,0,0,0,.17-1.71,7.47,7.47,0,0,0-.17-1.73,2.14,2.14,0,0,0-.52-1,1.18,1.18,0,0,0-.85-.33,1.6,1.6,0,0,0-1.17.54,2.73,2.73,0,0,0-.68,1.62l-.16-.19a2.84,2.84,0,0,1,.8-1.74A2.19,2.19,0,0,1,164.36,12.12Z"/><path class="cls-3" d="M169.6,19.22A1.44,1.44,0,0,1,168,17.64a1.5,1.5,0,0,1,.27-.92,2,2,0,0,1,.7-.59,5.49,5.49,0,0,1,.89-.4l.89-.32a3,3,0,0,0,.7-.36.6.6,0,0,0,.27-.5v-.82a1.72,1.72,0,0,0-.17-.85.76.76,0,0,0-.44-.39,1.72,1.72,0,0,0-.62-.1,3.07,3.07,0,0,0-.71.09,1,1,0,0,0-.6.39.78.78,0,0,1,.44.26.8.8,0,0,1,.18.54.69.69,0,0,1-.21.53.81.81,0,0,1-.54.19.65.65,0,0,1-.57-.25.88.88,0,0,1-.17-.55.81.81,0,0,1,.17-.55,2.08,2.08,0,0,1,.43-.4,3.06,3.06,0,0,1,.79-.36,3.38,3.38,0,0,1,1.09-.16,3.16,3.16,0,0,1,.93.13,1.68,1.68,0,0,1,.63.36,1.51,1.51,0,0,1,.45.78,4.88,4.88,0,0,1,.11,1.09v3.68a1,1,0,0,0,.09.47.35.35,0,0,0,.32.15.66.66,0,0,0,.32-.08,1.31,1.31,0,0,0,.28-.2l.14.23a3.71,3.71,0,0,1-.53.35,1.42,1.42,0,0,1-.67.14,1,1,0,0,1-.92-.36,1.5,1.5,0,0,1-.22-.82,2.2,2.2,0,0,1-1,.94A2.72,2.72,0,0,1,169.6,19.22Zm.58-.53a1.5,1.5,0,0,0,.78-.23,2.29,2.29,0,0,0,.72-.78V15.09a1.32,1.32,0,0,1-.62.46l-.86.38a2.47,2.47,0,0,0-.76.55,1.46,1.46,0,0,0-.31,1,1.23,1.23,0,0,0,.3.91A1,1,0,0,0,170.18,18.69Z"/><path class="cls-3" d="M178.86,12.12a2.23,2.23,0,0,1,.84.14,1.41,1.41,0,0,1,.57.37,1.49,1.49,0,0,1,.35.66,4.28,4.28,0,0,1,.11,1.07v3.53a1,1,0,0,0,.23.76,1.19,1.19,0,0,0,.77.2v.27l-.68,0-.9,0-.86,0-.62,0v-.27a.94.94,0,0,0,.67-.2,1.1,1.1,0,0,0,.2-.76V14.07a3.48,3.48,0,0,0-.07-.75.93.93,0,0,0-.3-.56,1,1,0,0,0-.7-.21,1.6,1.6,0,0,0-1.35.69,2.85,2.85,0,0,0-.51,1.72v2.93a1.1,1.1,0,0,0,.2.76,1,1,0,0,0,.68.2v.27l-.63,0-.85,0-.9,0-.69,0v-.27a1.19,1.19,0,0,0,.77-.2,1,1,0,0,0,.23-.76V13.75a1.48,1.48,0,0,0-.21-.88.92.92,0,0,0-.79-.28v-.28a7.63,7.63,0,0,0,.82,0,5.71,5.71,0,0,0,.73,0,2.88,2.88,0,0,0,.64-.14v1.57a2.37,2.37,0,0,1,1-1.26A2.61,2.61,0,0,1,178.86,12.12ZM177.1,9a1.41,1.41,0,0,1,.61.13,2.47,2.47,0,0,1,.46.31,3.64,3.64,0,0,0,.42.3,1,1,0,0,0,1,0,1.62,1.62,0,0,0,.48-.54l.19.1a2,2,0,0,1-.64,1,1.52,1.52,0,0,1-.93.32,1.31,1.31,0,0,1-.61-.13,2.18,2.18,0,0,1-.46-.31,3.19,3.19,0,0,0-.43-.32,1,1,0,0,0-.51-.13,1,1,0,0,0-.53.17,1.58,1.58,0,0,0-.49.55l-.18-.09a1.87,1.87,0,0,1,.64-1.06A1.62,1.62,0,0,1,177.1,9Z"/><path class="cls-3" d="M184.09,19.22a1.44,1.44,0,0,1-1.64-1.58,1.5,1.5,0,0,1,.27-.92,2,2,0,0,1,.7-.59,5.49,5.49,0,0,1,.89-.4l.89-.32a3.24,3.24,0,0,0,.7-.36.6.6,0,0,0,.27-.5v-.82a1.72,1.72,0,0,0-.17-.85.79.79,0,0,0-.44-.39,1.75,1.75,0,0,0-.62-.1,3.07,3.07,0,0,0-.71.09,1,1,0,0,0-.6.39.8.8,0,0,1,.62.8.69.69,0,0,1-.21.53.81.81,0,0,1-.55.19.64.64,0,0,1-.56-.25.89.89,0,0,1-.18-.55.81.81,0,0,1,.18-.55,2.08,2.08,0,0,1,.43-.4,3.06,3.06,0,0,1,.79-.36,3.38,3.38,0,0,1,1.09-.16,3.16,3.16,0,0,1,.93.13,1.68,1.68,0,0,1,.63.36,1.51,1.51,0,0,1,.45.78,4.88,4.88,0,0,1,.11,1.09v3.68a1,1,0,0,0,.09.47.35.35,0,0,0,.32.15.66.66,0,0,0,.32-.08,1.05,1.05,0,0,0,.27-.2l.15.23a4.37,4.37,0,0,1-.53.35,1.42,1.42,0,0,1-.67.14,1,1,0,0,1-.92-.36,1.5,1.5,0,0,1-.22-.82,2.2,2.2,0,0,1-1,.94A2.72,2.72,0,0,1,184.09,19.22Zm.58-.53a1.5,1.5,0,0,0,.78-.23,2.29,2.29,0,0,0,.72-.78V15.09a1.37,1.37,0,0,1-.62.46l-.86.38a2.47,2.47,0,0,0-.76.55,1.46,1.46,0,0,0-.32,1,1.23,1.23,0,0,0,.31.91A1,1,0,0,0,184.67,18.69Z"/><path class="cls-3" d="M193.27,12.12a2.21,2.21,0,0,1,.81.14,1.41,1.41,0,0,1,.57.37,1.32,1.32,0,0,1,.34.69,5,5,0,0,1,.1,1v3.53a1,1,0,0,0,.23.76,1.19,1.19,0,0,0,.77.2v.27l-.69,0-.9,0-.85,0-.63,0v-.27a1,1,0,0,0,.68-.2,1.11,1.11,0,0,0,.19-.76V14.07a4.35,4.35,0,0,0,0-.75.82.82,0,0,0-1-.77,1.4,1.4,0,0,0-.92.32,2.18,2.18,0,0,0-.64.86A3.25,3.25,0,0,0,191.1,15v2.93a1.1,1.1,0,0,0,.2.76,1,1,0,0,0,.68.2v.27l-.63,0-.86,0-.9,0-.68,0v-.27a1.19,1.19,0,0,0,.77-.2,1,1,0,0,0,.23-.76V13.75a1.48,1.48,0,0,0-.21-.88.93.93,0,0,0-.79-.28v-.28a7.63,7.63,0,0,0,.82,0,5.71,5.71,0,0,0,.73,0,3,3,0,0,0,.64-.14v1.57A2.44,2.44,0,0,1,192,12.5,2.3,2.3,0,0,1,193.27,12.12Zm4,0a2.2,2.2,0,0,1,.8.14,1.4,1.4,0,0,1,.92,1.06,5.09,5.09,0,0,1,.09,1v3.53a1,1,0,0,0,.23.76,1.19,1.19,0,0,0,.77.2v.27l-.68,0-.9,0-.86,0-.63,0v-.27a1,1,0,0,0,.68-.2,1.1,1.1,0,0,0,.2-.76V14.07a4.3,4.3,0,0,0-.06-.75.82.82,0,0,0-.95-.77,1.54,1.54,0,0,0-1.28.69,2.81,2.81,0,0,0-.5,1.7l0-1.23a2.31,2.31,0,0,1,1-1.25A2.61,2.61,0,0,1,197.26,12.12Z"/><path class="cls-3" d="M203.9,12.12a3.09,3.09,0,0,1,1.52.38,2.6,2.6,0,0,1,1.08,1.16,4.55,4.55,0,0,1,.4,2.06,4.5,4.5,0,0,1-.4,2.06,2.65,2.65,0,0,1-1.08,1.16,3.31,3.31,0,0,1-3,0,2.65,2.65,0,0,1-1.08-1.16,4.49,4.49,0,0,1-.41-2.06,4.55,4.55,0,0,1,.41-2.06,2.6,2.6,0,0,1,1.08-1.16A3.12,3.12,0,0,1,203.9,12.12Zm0,.27a1.43,1.43,0,0,0-1.24.78,5.08,5.08,0,0,0-.48,2.55,5.05,5.05,0,0,0,.48,2.55,1.38,1.38,0,0,0,2.48,0,5.05,5.05,0,0,0,.48-2.55,5.08,5.08,0,0,0-.48-2.55A1.44,1.44,0,0,0,203.9,12.39Z"/><path class="cls-3" d="M210.28,12.12a2.06,2.06,0,0,1,.9.18,3,3,0,0,1,.54.31c.29.24.46.08.53-.47h.3c0,.24,0,.54,0,.88s0,.79,0,1.37h-.31a4,4,0,0,0-.27-1,1.93,1.93,0,0,0-.56-.76,1.49,1.49,0,0,0-1-.29,1.19,1.19,0,0,0-.77.25.94.94,0,0,0-.31.76,1,1,0,0,0,.24.69,2.77,2.77,0,0,0,.62.53l.83.53a9.64,9.64,0,0,1,1.29,1,1.77,1.77,0,0,1,.53,1.33,1.65,1.65,0,0,1-.32,1,2,2,0,0,1-.83.62,2.9,2.9,0,0,1-1.12.21,3.31,3.31,0,0,1-.55,0,2.11,2.11,0,0,1-.49-.14,1.28,1.28,0,0,1-.27-.16,1.85,1.85,0,0,1-.27-.19.16.16,0,0,0-.24,0,.88.88,0,0,0-.16.45h-.31c0-.29,0-.63,0-1s0-.94,0-1.61h.3a7.06,7.06,0,0,0,.27,1.3,1.68,1.68,0,0,0,.54.86,1.55,1.55,0,0,0,1,.31,1.37,1.37,0,0,0,.79-.27,1.14,1.14,0,0,0,.39-1,1.21,1.21,0,0,0-.43-1,10.37,10.37,0,0,0-1.07-.78c-.32-.2-.61-.4-.89-.6a3.17,3.17,0,0,1-.68-.69,1.66,1.66,0,0,1-.25-.93,1.53,1.53,0,0,1,1-1.53A2.58,2.58,0,0,1,210.28,12.12Z"/><path class="cls-3" d="M220.33,12.12a2.36,2.36,0,0,1,1.82.71,3.16,3.16,0,0,1,.66,2.21h-4.68v-.26h3.42a4.5,4.5,0,0,0-.11-1.19,2.07,2.07,0,0,0-.42-.88.92.92,0,0,0-.73-.33,1.35,1.35,0,0,0-1.08.6,3.64,3.64,0,0,0-.56,1.94l0,.05c0,.13,0,.28,0,.44s0,.31,0,.47a3.66,3.66,0,0,0,.3,1.55,2.35,2.35,0,0,0,.76,1,1.65,1.65,0,0,0,1,.33,2.11,2.11,0,0,0,1.1-.29,2.24,2.24,0,0,0,.84-1l.27.11a2.75,2.75,0,0,1-.48.84,2.48,2.48,0,0,1-.83.67,2.58,2.58,0,0,1-1.17.26,3,3,0,0,1-1.63-.44,2.89,2.89,0,0,1-1.05-1.21,4.16,4.16,0,0,1-.36-1.78,4.89,4.89,0,0,1,.37-2,3,3,0,0,1,1-1.3A2.76,2.76,0,0,1,220.33,12.12Z"/><path class="cls-3" d="M228.26,12.12a2.3,2.3,0,0,1,.84.14,1.45,1.45,0,0,1,.56.37,1.41,1.41,0,0,1,.36.66,4.35,4.35,0,0,1,.1,1.07v3.53a1,1,0,0,0,.23.76,1.24,1.24,0,0,0,.78.2v.27l-.69,0-.9,0-.85,0-.63,0v-.27a.92.92,0,0,0,.67-.2,1.05,1.05,0,0,0,.2-.76V14.07a4.3,4.3,0,0,0-.06-.75,1.05,1.05,0,0,0-.3-.56,1,1,0,0,0-.71-.21,1.58,1.58,0,0,0-1.34.69A2.85,2.85,0,0,0,226,15v2.93a1.05,1.05,0,0,0,.2.76.92.92,0,0,0,.67.2v.27l-.63,0-.85,0-.9,0-.69,0v-.27a1.24,1.24,0,0,0,.78-.2,1,1,0,0,0,.23-.76V13.75a1.48,1.48,0,0,0-.21-.88,1,1,0,0,0-.8-.28v-.28a7.75,7.75,0,0,0,.82,0,5.87,5.87,0,0,0,.74,0,3.15,3.15,0,0,0,.64-.14v1.57a2.37,2.37,0,0,1,1-1.26A2.61,2.61,0,0,1,228.26,12.12Z"/><path class="cls-3" d="M237,10.11v2.21h2v.27h-2v5.12a1.31,1.31,0,0,0,.23.87.79.79,0,0,0,.62.25.93.93,0,0,0,.69-.32,2.85,2.85,0,0,0,.5-1.09l.27.06a3,3,0,0,1-.53,1.3,1.39,1.39,0,0,1-1.19.53,2.28,2.28,0,0,1-.75-.11,1.72,1.72,0,0,1-.51-.33,1.5,1.5,0,0,1-.4-.73,4.2,4.2,0,0,1-.12-1.12V12.59H234.5v-.27h1.27v-2l.64-.05A2.76,2.76,0,0,0,237,10.11Z"/><path class="cls-3" d="M245.52,12.16V17.7a1.5,1.5,0,0,0,.22.88,1,1,0,0,0,.79.28v.28a7.5,7.5,0,0,0-.82,0,5.64,5.64,0,0,0-.73,0,2.58,2.58,0,0,0-.65.14V17.72A2.41,2.41,0,0,1,243.4,19a2.39,2.39,0,0,1-2,.23,1.65,1.65,0,0,1-.57-.37,1.42,1.42,0,0,1-.35-.69,5.13,5.13,0,0,1-.09-1.05V13.75a1.48,1.48,0,0,0-.21-.88.94.94,0,0,0-.8-.28v-.28a7.94,7.94,0,0,0,.83,0,5.71,5.71,0,0,0,.73,0,3,3,0,0,0,.64-.14v5.2a5.81,5.81,0,0,0,.05.76,1,1,0,0,0,.27.55.91.91,0,0,0,.69.22,1.53,1.53,0,0,0,1.28-.7,2.78,2.78,0,0,0,.5-1.7V13.75a1.48,1.48,0,0,0-.21-.88.92.92,0,0,0-.79-.28v-.28a7.63,7.63,0,0,0,.82,0,5.71,5.71,0,0,0,.73,0A2.88,2.88,0,0,0,245.52,12.16Z"/><path class="cls-3" d="M114.41,46.31a3.21,3.21,0,0,1-2.5-.86,3.26,3.26,0,0,1-.78-2.29,3,3,0,0,1,.54-1.84,4.46,4.46,0,0,1,1.39-1.19,12,12,0,0,1,1.79-.79l1.79-.65A5.9,5.9,0,0,0,118,38a1.2,1.2,0,0,0,.55-1V35.33a3.46,3.46,0,0,0-.33-1.69,1.64,1.64,0,0,0-.89-.78,3.51,3.51,0,0,0-1.24-.2,6.14,6.14,0,0,0-1.42.18,2.13,2.13,0,0,0-1.2.77,1.61,1.61,0,0,1,.87.53,1.56,1.56,0,0,1,.37,1.08,1.35,1.35,0,0,1-.42,1.05,1.56,1.56,0,0,1-1.09.38,1.29,1.29,0,0,1-1.12-.49,1.78,1.78,0,0,1-.36-1.09,1.74,1.74,0,0,1,.34-1.12,4.28,4.28,0,0,1,.88-.79,5.75,5.75,0,0,1,1.57-.73,7.39,7.39,0,0,1,2.19-.3,5.91,5.91,0,0,1,1.85.25,3.37,3.37,0,0,1,1.27.73,3,3,0,0,1,.9,1.55,9.76,9.76,0,0,1,.21,2.18V44.2a1.86,1.86,0,0,0,.18.93.69.69,0,0,0,.64.31,1.25,1.25,0,0,0,.65-.16,3.75,3.75,0,0,0,.54-.4l.29.45a7.14,7.14,0,0,1-1.06.7,2.71,2.71,0,0,1-1.35.28A2,2,0,0,1,119,45.6a3,3,0,0,1-.45-1.64,4.57,4.57,0,0,1-1.92,1.88A5.59,5.59,0,0,1,114.41,46.31Zm1.17-1.06a3,3,0,0,0,1.56-.46,4.43,4.43,0,0,0,1.43-1.55V38.06a2.77,2.77,0,0,1-1.23.92c-.56.23-1.13.48-1.72.76a4.56,4.56,0,0,0-1.52,1.11,2.84,2.84,0,0,0-.64,2,2.42,2.42,0,0,0,.61,1.81A2,2,0,0,0,115.58,45.25Z"/><path class="cls-3" d="M128.52,32.21V48.46a1.6,1.6,0,0,0,.67,1.52,3.87,3.87,0,0,0,1.87.38v.56l-1.62-.07c-.68,0-1.42,0-2.19,0-.55,0-1.09,0-1.63,0l-1.23.07v-.56a2.09,2.09,0,0,0,1.35-.34,1.69,1.69,0,0,0,.4-1.3V35.38a3,3,0,0,0-.43-1.76,1.87,1.87,0,0,0-1.59-.57V32.5c.57,0,1.12.08,1.65.08a11.33,11.33,0,0,0,1.46-.09A8.82,8.82,0,0,0,128.52,32.21Zm4.23-.08a4.42,4.42,0,0,1,3.51,1.68,7.41,7.41,0,0,1,1.41,4.88,11.16,11.16,0,0,1-.62,3.71,6.72,6.72,0,0,1-1.94,3,5.2,5.2,0,0,1-3.5,1.15,4,4,0,0,1-2.15-.58,2.94,2.94,0,0,1-1.23-1.41l.26-.37a3.38,3.38,0,0,0,1.07,1.25,3,3,0,0,0,1.76.5,2.93,2.93,0,0,0,2.31-.93,5.41,5.41,0,0,0,1.15-2.47,16.5,16.5,0,0,0,.33-3.43,14.38,14.38,0,0,0-.35-3.47,4.14,4.14,0,0,0-1-2,2.35,2.35,0,0,0-1.69-.66A3.27,3.27,0,0,0,129.68,34a5.65,5.65,0,0,0-1.35,3.25l-.32-.38a5.66,5.66,0,0,1,1.61-3.49A4.36,4.36,0,0,1,132.75,32.13Z"/><path class="cls-3" d="M148.18,32.13a2.58,2.58,0,0,1,1.26.29,2.19,2.19,0,0,1,.84.75,1.82,1.82,0,0,1,.31,1,1.79,1.79,0,0,1-.41,1.16,1.35,1.35,0,0,1-1.1.51,1.47,1.47,0,0,1-1-.36,1.27,1.27,0,0,1-.42-1,1.38,1.38,0,0,1,.27-.86,2.4,2.4,0,0,1,.63-.57.63.63,0,0,0-.56-.26,2.61,2.61,0,0,0-1.93.83,6.5,6.5,0,0,0-1.75,4.14V43.4a1.81,1.81,0,0,0,.76,1.73,4,4,0,0,0,2.05.44v.56l-1.72-.07c-.74,0-1.53,0-2.36,0-.6,0-1.19,0-1.78,0l-1.34.07v-.56a2.36,2.36,0,0,0,1.55-.4,1.91,1.91,0,0,0,.46-1.5V35.38a3,3,0,0,0-.42-1.76,1.88,1.88,0,0,0-1.59-.57V32.5c.56,0,1.11.08,1.64.08a11.61,11.61,0,0,0,1.47-.09,8.68,8.68,0,0,0,1.28-.28v3.3a7.12,7.12,0,0,1,.84-1.54,5,5,0,0,1,1.31-1.31A2.85,2.85,0,0,1,148.18,32.13Z"/><path class="cls-3" d="M157.89,32.13a4.72,4.72,0,0,1,3.64,1.41A6.37,6.37,0,0,1,162.84,38H153.5l0-.5h6.83a8.77,8.77,0,0,0-.21-2.4,4.19,4.19,0,0,0-.84-1.76,1.82,1.82,0,0,0-1.46-.66,2.71,2.71,0,0,0-2.16,1.22,7.22,7.22,0,0,0-1.13,3.86l.08.11c0,.26-.06.55-.08.87s0,.64,0,1a7.49,7.49,0,0,0,.58,3.1,4.84,4.84,0,0,0,1.52,2,3.32,3.32,0,0,0,1.95.68,4.28,4.28,0,0,0,2.19-.59,4.39,4.39,0,0,0,1.7-2.06L163,43a5.55,5.55,0,0,1-1,1.69,5,5,0,0,1-4,1.86,5.88,5.88,0,0,1-3.27-.88,5.62,5.62,0,0,1-2.09-2.42,8.21,8.21,0,0,1-.73-3.56,10,10,0,0,1,.74-4A6,6,0,0,1,154.74,33,5.48,5.48,0,0,1,157.89,32.13Z"/><path class="cls-3" d="M174,32.13a4.78,4.78,0,0,1,1.68.26,3.18,3.18,0,0,1,1.12.74,3,3,0,0,1,.72,1.33,8.68,8.68,0,0,1,.21,2.14v7.07a1.91,1.91,0,0,0,.46,1.5,2.36,2.36,0,0,0,1.55.4v.56l-1.38-.07c-.61,0-1.21,0-1.79,0s-1.16,0-1.71,0l-1.26.07v-.56a1.83,1.83,0,0,0,1.35-.4,2.09,2.09,0,0,0,.4-1.5V36a8.76,8.76,0,0,0-.13-1.51,2,2,0,0,0-.6-1.11,2.06,2.06,0,0,0-1.42-.43,3.18,3.18,0,0,0-2.68,1.39,5.65,5.65,0,0,0-1,3.43v5.88a2.09,2.09,0,0,0,.4,1.5,1.83,1.83,0,0,0,1.35.4v.56L170,46.06c-.56,0-1.13,0-1.71,0s-1.18,0-1.8,0l-1.37.07v-.56a2.31,2.31,0,0,0,1.54-.4,1.91,1.91,0,0,0,.47-1.5V35.38a2.91,2.91,0,0,0-.43-1.76,1.86,1.86,0,0,0-1.58-.57V32.5c.56,0,1.11.08,1.64.08a11.61,11.61,0,0,0,1.47-.09,9,9,0,0,0,1.28-.28v3.12a4.64,4.64,0,0,1,1.92-2.5A5.11,5.11,0,0,1,174,32.13Z"/><path class="cls-3" d="M187.66,32.13a4.51,4.51,0,0,1,2.19.55,2.84,2.84,0,0,1,1.36,1.91l-.35.26a2.88,2.88,0,0,0-1.15-1.61,3.27,3.27,0,0,0-1.84-.5,3,3,0,0,0-2.6,1.61,9.17,9.17,0,0,0-1,5,13.11,13.11,0,0,0,.41,3.55A4.23,4.23,0,0,0,185.88,45a2.86,2.86,0,0,0,2,.7,2.69,2.69,0,0,0,2-1,4.61,4.61,0,0,0,1.08-2.8l.32.37A5,5,0,0,1,190,45.41a3.88,3.88,0,0,1-2.9,1.09,5.18,5.18,0,0,1-2.87-.8,4.94,4.94,0,0,1-1.88-2.38,10.67,10.67,0,0,1-.65-4,8.54,8.54,0,0,1,.84-4,5.61,5.61,0,0,1,5.14-3.19Zm5.56-6.75V43.24a2.88,2.88,0,0,0,.44,1.76,1.86,1.86,0,0,0,1.57.57v.56a15,15,0,0,0-1.64-.08,11.64,11.64,0,0,0-1.47.08,5.46,5.46,0,0,0-1.28.29V28.55a3,3,0,0,0-.42-1.76,1.92,1.92,0,0,0-1.59-.56v-.56c.56,0,1.11.08,1.64.08a11.61,11.61,0,0,0,1.47-.09A7.78,7.78,0,0,0,193.22,25.38Z"/><path class="cls-3" d="M201.21,32.21V43.67a1.91,1.91,0,0,0,.47,1.5,2.31,2.31,0,0,0,1.54.4v.56l-1.36-.07c-.61,0-1.22,0-1.84,0s-1.21,0-1.82,0l-1.38.07v-.56a2.36,2.36,0,0,0,1.55-.4,1.91,1.91,0,0,0,.46-1.5V35.38a3,3,0,0,0-.42-1.76,1.88,1.88,0,0,0-1.59-.57V32.5c.56,0,1.11.08,1.64.08a11.61,11.61,0,0,0,1.47-.09A8.68,8.68,0,0,0,201.21,32.21Zm-1.37-6.33a1.71,1.71,0,0,1,1.69,1.7,1.65,1.65,0,0,1-.5,1.19,1.67,1.67,0,0,1-1.19.5,1.7,1.7,0,0,1,0-3.39Z"/><path class="cls-3" d="M215.69,32.37,208,45.73H211a3.82,3.82,0,0,0,1.84-.42,3.12,3.12,0,0,0,1.26-1.37,6.6,6.6,0,0,0,.58-2.47h.61c0,1.13,0,2.08,0,2.86s.05,1.41.08,1.9l-2.42-.08-2.5,0c-.88,0-1.78,0-2.7,0s-1.8,0-2.64.09l7.64-13.36h-2.91a4.06,4.06,0,0,0-1.94.42,2.72,2.72,0,0,0-1.19,1.36,7.87,7.87,0,0,0-.55,2.48h-.6q0-1.72,0-2.88c0-.76-.05-1.39-.08-1.89.78,0,1.58.06,2.42.08l2.5,0c.88,0,1.78,0,2.7,0Z"/><path class="cls-3" d="M221.24,46.31a3.21,3.21,0,0,1-2.5-.86,3.26,3.26,0,0,1-.78-2.29,3,3,0,0,1,.55-1.84,4.25,4.25,0,0,1,1.39-1.19,11.88,11.88,0,0,1,1.78-.79l1.79-.65a6,6,0,0,0,1.39-.71,1.21,1.21,0,0,0,.54-1V35.33a3.46,3.46,0,0,0-.33-1.69,1.64,1.64,0,0,0-.89-.78,3.47,3.47,0,0,0-1.24-.2,6.2,6.2,0,0,0-1.42.18,2.13,2.13,0,0,0-1.2.77,1.59,1.59,0,0,1,1.24,1.61,1.35,1.35,0,0,1-.42,1.05,1.54,1.54,0,0,1-1.09.38,1.29,1.29,0,0,1-1.12-.49,1.78,1.78,0,0,1-.36-1.09,1.74,1.74,0,0,1,.35-1.12,4.49,4.49,0,0,1,.87-.79,5.89,5.89,0,0,1,1.57-.73,7.43,7.43,0,0,1,2.19-.3,5.91,5.91,0,0,1,1.85.25,3.37,3.37,0,0,1,1.27.73,3,3,0,0,1,.9,1.55,9.76,9.76,0,0,1,.21,2.18V44.2a1.75,1.75,0,0,0,.19.93.66.66,0,0,0,.63.31,1.23,1.23,0,0,0,.65-.16,2.9,2.9,0,0,0,.54-.4l.29.45A7.64,7.64,0,0,1,229,46a2.76,2.76,0,0,1-1.35.28,2,2,0,0,1-1.83-.71A3,3,0,0,1,225.4,44a4.46,4.46,0,0,1-1.92,1.88A5.55,5.55,0,0,1,221.24,46.31Zm1.17-1.06a3,3,0,0,0,1.56-.46,4.43,4.43,0,0,0,1.43-1.55V38.06a2.67,2.67,0,0,1-1.23.92c-.56.23-1.13.48-1.72.76a4.56,4.56,0,0,0-1.52,1.11,2.84,2.84,0,0,0-.64,2,2.42,2.42,0,0,0,.61,1.81A2.07,2.07,0,0,0,222.41,45.25Z"/><path class="cls-3" d="M229.69,51.1v-.39a2.9,2.9,0,0,0,2.46-1.42,7.05,7.05,0,0,0,.82-3.67V35.38a2.91,2.91,0,0,0-.43-1.76,1.86,1.86,0,0,0-1.58-.57V32.5c.56,0,1.11.08,1.64.08a11.61,11.61,0,0,0,1.47-.09,9,9,0,0,0,1.28-.28V43.08a14.51,14.51,0,0,1-.44,3.66,6.19,6.19,0,0,1-1.47,2.75,5.24,5.24,0,0,1-1.62,1.16A5,5,0,0,1,229.69,51.1Zm4.23-25.22a1.71,1.71,0,0,1,1.69,1.7,1.61,1.61,0,0,1-.5,1.19,1.63,1.63,0,0,1-1.19.5,1.65,1.65,0,0,1-1.19-.5,1.61,1.61,0,0,1-.5-1.19,1.63,1.63,0,0,1,.5-1.2A1.65,1.65,0,0,1,233.92,25.88Z"/><path class="cls-3" d="M244.9,32.13a4.71,4.71,0,0,1,3.64,1.41A6.32,6.32,0,0,1,249.85,38h-9.34l0-.5h6.83a8.39,8.39,0,0,0-.21-2.4,4.18,4.18,0,0,0-.83-1.76,1.85,1.85,0,0,0-1.47-.66,2.72,2.72,0,0,0-2.16,1.22,7.14,7.14,0,0,0-1.12,3.86l.08.11a7.18,7.18,0,0,0-.08.87c0,.32,0,.64,0,1a7.49,7.49,0,0,0,.58,3.1,4.84,4.84,0,0,0,1.52,2,3.32,3.32,0,0,0,1.95.68,4,4,0,0,0,3.89-2.65L250,43a5.51,5.51,0,0,1-1,1.69A5.12,5.12,0,0,1,247.34,46a5,5,0,0,1-2.33.52,5.88,5.88,0,0,1-3.27-.88,5.68,5.68,0,0,1-2.09-2.42,8.21,8.21,0,0,1-.73-3.56,10,10,0,0,1,.74-4A6,6,0,0,1,241.75,33,5.48,5.48,0,0,1,244.9,32.13Z"/><rect class="cls-3" x="96.36" y="1.65" width="2.43" height="49.62"/></g></g></svg>