<svg xmlns="http://www.w3.org/2000/svg" viewBox="0 0 84.74 55.39"><defs><style>.cls-1{font-size:17.58px;font-family:GoudyOldStyleT-Bold, Goudy Old Style;font-weight:700;}.cls-2{letter-spacing:-0.03em;}.cls-3{fill:#50a9d0;}.cls-4{fill:none;stroke:#000;stroke-miterlimit:10;}</style></defs><title>logocolorsmall</title><g id="Capa_2" data-name="Capa 2"><g id="Capa_1-2" data-name="Capa 1"><text class="cls-1" transform="translate(0.23 50.82)">AP<tspan class="cls-2" x="22.93" y="0">R</tspan><tspan x="34.57" y="0">OB</tspan><tspan class="cls-3" x="60.03" y="0">AR</tspan></text><path d="M26.64,1.35V27.61s6.06-2,8.76-2a19.89,19.89,0,0,1,6.06,1.35V2s-3.37-2-5.39-2S26.64,1.35,26.64,1.35Z"/><path d="M57.62,1.35V27.61s-6.06-2-8.75-2a19.8,19.8,0,0,0-6.06,1.35V2s3.36-2,5.38-2S57.62,1.35,57.62,1.35Z"/><polyline class="cls-4" points="24.62 1.35 24.62 29.63 38.31 29.63 46.17 29.63 59.64 29.63 59.64 1.35"/><rect x="38.09" y="29.63" width="8.08" height="2.02"/></g></g></svg>