<svg xmlns="http://www.w3.org/2000/svg" viewBox="0 0 320.39 66.98"><defs><style>.cls-1{font-size:21.26px;font-family:GoudyOldStyleT-Bold, Goudy Old Style;font-weight:700;}.cls-2{letter-spacing:-0.03em;}.cls-3{fill:#fff;}.cls-4{fill:none;stroke:#000;stroke-miterlimit:10;}</style></defs><title>logofullsvg</title><g id="Capa_2" data-name="Capa 2"><g id="Capa_1-2" data-name="Capa 1"><text class="cls-1" transform="translate(0.28 61.45)">AP<tspan class="cls-2" x="27.72" y="0">R</tspan><tspan x="41.81" y="0">OB</tspan><tspan class="cls-3" x="72.59" y="0">AR</tspan></text><path d="M32.22,1.63V33.39S39.54,31,42.8,31a24,24,0,0,1,7.33,1.63V2.44S46.06,0,43.62,0,32.22,1.63,32.22,1.63Z"/><path d="M69.68,1.63V33.39S62.35,31,59.09,31a24,24,0,0,0-7.33,1.63V2.44S55.83,0,58.28,0,69.68,1.63,69.68,1.63Z"/><polyline class="cls-4" points="29.77 1.63 29.77 35.83 46.33 35.83 55.83 35.83 72.12 35.83 72.12 1.63"/><rect x="46.06" y="35.83" width="9.77" height="2.44"/><path class="cls-3" d="M160.74,11.8q-.06.6-.09,1.17c0,.38,0,.67,0,.87s0,.5,0,.73,0,.42,0,.59h-.37a10.3,10.3,0,0,0-.3-1.77,1.57,1.57,0,0,0-.68-.94,3,3,0,0,0-1.48-.28H157v9.1a2.87,2.87,0,0,0,.12,1,.7.7,0,0,0,.47.43,4,4,0,0,0,1,.14v.33c-.28,0-.63,0-1.06-.05h-2.65c-.42,0-.76,0-1,.05V22.8a3.88,3.88,0,0,0,1-.14.68.68,0,0,0,.47-.43,2.87,2.87,0,0,0,.12-1v-9.1h-.86a3,3,0,0,0-1.48.28,1.54,1.54,0,0,0-.68.94,9.4,9.4,0,0,0-.3,1.77h-.37c0-.17,0-.37,0-.59s0-.47,0-.73,0-.49,0-.87,0-.77-.09-1.17l1.47,0h6.09Z"/><path class="cls-3" d="M164.87,14.66a2.85,2.85,0,0,1,2.2.86,3.81,3.81,0,0,1,.79,2.66h-5.65v-.3h4.13a5.55,5.55,0,0,0-.13-1.45,2.5,2.5,0,0,0-.51-1.06,1.1,1.1,0,0,0-.88-.41,1.65,1.65,0,0,0-1.31.74,4.39,4.39,0,0,0-.68,2.34l.05.06c0,.16,0,.34-.05.53s0,.38,0,.58a4.49,4.49,0,0,0,.35,1.87,2.82,2.82,0,0,0,.92,1.19,2,2,0,0,0,1.17.41,2.64,2.64,0,0,0,1.33-.35,2.75,2.75,0,0,0,1-1.25l.32.13a3.29,3.29,0,0,1-.58,1,3.12,3.12,0,0,1-1,.81,3,3,0,0,1-1.41.31,3.6,3.6,0,0,1-2-.53,3.48,3.48,0,0,1-1.27-1.46,5.07,5.07,0,0,1-.44-2.15,6,6,0,0,1,.45-2.43A3.56,3.56,0,0,1,163,15.21,3.27,3.27,0,0,1,164.87,14.66Z"/><path class="cls-3" d="M175.21,23.24a2,2,0,0,1-1.52-.52,2,2,0,0,1-.47-1.39,1.79,1.79,0,0,1,.33-1.11,2.68,2.68,0,0,1,.84-.72,6.56,6.56,0,0,1,1.08-.48l1.08-.39a3.64,3.64,0,0,0,.84-.43.73.73,0,0,0,.33-.61v-1a2.18,2.18,0,0,0-.2-1,1,1,0,0,0-.54-.47,2.19,2.19,0,0,0-.75-.12,3.9,3.9,0,0,0-.86.11,1.27,1.27,0,0,0-.72.47.93.93,0,0,1,.52.32,1,1,0,0,1,.23.65.84.84,0,0,1-.26.64,1,1,0,0,1-.65.23.78.78,0,0,1-.68-.3,1.15,1.15,0,0,1,0-1.34,2.22,2.22,0,0,1,.53-.47,3.37,3.37,0,0,1,.95-.45,4.48,4.48,0,0,1,1.32-.18,3.66,3.66,0,0,1,1.12.15,2.07,2.07,0,0,1,.77.44,1.9,1.9,0,0,1,.54.94,5.67,5.67,0,0,1,.13,1.32V22a1.22,1.22,0,0,0,.11.57.41.41,0,0,0,.38.18.77.77,0,0,0,.4-.1,1.41,1.41,0,0,0,.32-.24l.18.27a4.22,4.22,0,0,1-.64.43,1.7,1.7,0,0,1-.82.17,1.2,1.2,0,0,1-1.1-.44,1.79,1.79,0,0,1-.27-1A2.68,2.68,0,0,1,176.56,23,3.31,3.31,0,0,1,175.21,23.24Zm.7-.64a1.86,1.86,0,0,0,.94-.28,2.76,2.76,0,0,0,.87-.94V18.25a1.57,1.57,0,0,1-.75.55l-1,.46a3.07,3.07,0,0,0-.92.67,1.79,1.79,0,0,0-.38,1.21,1.46,1.46,0,0,0,.37,1.1A1.24,1.24,0,0,0,175.91,22.6Z"/><path class="cls-3" d="M185,14.66a3.64,3.64,0,0,1,1,.13,2.84,2.84,0,0,1,.87.38,2,2,0,0,1,.56.55,1.38,1.38,0,0,1,.19.69.89.89,0,0,1-.24.66.85.85,0,0,1-.61.23,1,1,0,0,1-.62-.21.72.72,0,0,1-.26-.59.87.87,0,0,1,.67-.88,1.16,1.16,0,0,0-.57-.48,2,2,0,0,0-.87-.19,1.84,1.84,0,0,0-.8.19,2.13,2.13,0,0,0-.73.63,3.52,3.52,0,0,0-.55,1.2,7.28,7.28,0,0,0-.21,1.9,6.49,6.49,0,0,0,.32,2.24A2.58,2.58,0,0,0,184,22.3a2,2,0,0,0,1.15.36,2.46,2.46,0,0,0,1.26-.37A2.67,2.67,0,0,0,187.48,21l.3.12a3.49,3.49,0,0,1-.53,1,2.83,2.83,0,0,1-2.41,1.19,3.25,3.25,0,0,1-1.79-.51,3.55,3.55,0,0,1-1.28-1.47,5.09,5.09,0,0,1-.47-2.26,5.38,5.38,0,0,1,.47-2.31,3.85,3.85,0,0,1,1.32-1.57A3.4,3.4,0,0,1,185,14.66Z"/><path class="cls-3" d="M192.73,14.66a3.77,3.77,0,0,1,1.84.45,3.25,3.25,0,0,1,1.3,1.41,5.44,5.44,0,0,1,.49,2.49,5.38,5.38,0,0,1-.49,2.49,3.23,3.23,0,0,1-1.3,1.4,4,4,0,0,1-3.68,0,3.19,3.19,0,0,1-1.31-1.4,5.51,5.51,0,0,1-.49-2.49,5.57,5.57,0,0,1,.49-2.49,3.21,3.21,0,0,1,1.31-1.41A3.77,3.77,0,0,1,192.73,14.66Zm0,.32a1.74,1.74,0,0,0-1.5.94,6.13,6.13,0,0,0-.58,3.09,6.06,6.06,0,0,0,.58,3.08,1.66,1.66,0,0,0,3,0,6,6,0,0,0,.59-3.08,6.11,6.11,0,0,0-.59-3.09A1.74,1.74,0,0,0,192.73,15Z"/><path class="cls-3" d="M202.85,14.66a2.65,2.65,0,0,1,1,.16,1.88,1.88,0,0,1,.69.45,1.67,1.67,0,0,1,.41.83,5.64,5.64,0,0,1,.12,1.27v4.27a1.17,1.17,0,0,0,.28.91,1.4,1.4,0,0,0,.93.24v.34l-.83-.05-1.09,0-1,0-.76.05v-.34a1.15,1.15,0,0,0,.82-.24,1.31,1.31,0,0,0,.24-.91V17a6.35,6.35,0,0,0-.07-.91,1,1,0,0,0-1.15-.93,1.71,1.71,0,0,0-1.11.39,2.48,2.48,0,0,0-.77,1,3.67,3.67,0,0,0-.28,1.47v3.56a1.31,1.31,0,0,0,.24.91,1.13,1.13,0,0,0,.82.24v.34l-.76-.05-1,0-1.08,0-.84.05v-.34a1.45,1.45,0,0,0,.94-.24,1.17,1.17,0,0,0,.28-.91v-5a1.76,1.76,0,0,0-.26-1.06,1.13,1.13,0,0,0-1-.35v-.34a8.58,8.58,0,0,0,1,0,8.33,8.33,0,0,0,.88,0,5.32,5.32,0,0,0,.78-.17V16.6a3,3,0,0,1,1.14-1.49A2.75,2.75,0,0,1,202.85,14.66Zm4.82,0a2.69,2.69,0,0,1,1,.16,1.92,1.92,0,0,1,.68.45,1.6,1.6,0,0,1,.42.83,6.37,6.37,0,0,1,.11,1.27v4.27a1.17,1.17,0,0,0,.28.91,1.45,1.45,0,0,0,.94.24v.34l-.83-.05-1.09,0-1,0-.76.05v-.34a1.12,1.12,0,0,0,.81-.24,1.31,1.31,0,0,0,.24-.91V17a6.42,6.42,0,0,0-.06-.91,1.21,1.21,0,0,0-.32-.67,1.15,1.15,0,0,0-.83-.26,1.87,1.87,0,0,0-1.55.83,3.41,3.41,0,0,0-.61,2.07L205,16.58a2.79,2.79,0,0,1,1.17-1.51A3.08,3.08,0,0,1,207.67,14.66Z"/><path class="cls-3" d="M214.33,14.71v9.82a1,1,0,0,0,.4.92,2.27,2.27,0,0,0,1.13.23V26l-1,0c-.42,0-.86,0-1.33,0s-.66,0-1,0l-.74,0v-.34a1.27,1.27,0,0,0,.82-.2,1,1,0,0,0,.24-.79V16.63a1.76,1.76,0,0,0-.26-1.06,1.13,1.13,0,0,0-1-.35v-.34a8.84,8.84,0,0,0,1.88,0A5.62,5.62,0,0,0,214.33,14.71Zm2.56-.05a2.68,2.68,0,0,1,2.12,1,4.46,4.46,0,0,1,.85,2.95,6.83,6.83,0,0,1-.37,2.24,4.19,4.19,0,0,1-1.18,1.78,3.07,3.07,0,0,1-2.11.7,2.44,2.44,0,0,1-1.31-.35,1.86,1.86,0,0,1-.74-.85l.16-.23a2.05,2.05,0,0,0,.65.76,2,2,0,0,0,2.45-.26,3.18,3.18,0,0,0,.7-1.5,10.1,10.1,0,0,0,.2-2.07,8.57,8.57,0,0,0-.21-2.09,2.59,2.59,0,0,0-.62-1.22,1.42,1.42,0,0,0-1-.4,2,2,0,0,0-1.42.65,3.33,3.33,0,0,0-.82,2l-.19-.22a3.42,3.42,0,0,1,1-2.12A2.67,2.67,0,0,1,216.89,14.66Z"/><path class="cls-3" d="M223.22,23.24a1.74,1.74,0,0,1-2-1.91,1.79,1.79,0,0,1,.33-1.11,2.47,2.47,0,0,1,.84-.72,6.56,6.56,0,0,1,1.08-.48l1.08-.39a3.64,3.64,0,0,0,.84-.43.75.75,0,0,0,.32-.61v-1a2.07,2.07,0,0,0-.2-1,1,1,0,0,0-.53-.47,2.27,2.27,0,0,0-.75-.12,3.83,3.83,0,0,0-.86.11,1.3,1.3,0,0,0-.73.47,1,1,0,0,1,.75,1,.83.83,0,0,1-.25.64,1,1,0,0,1-.66.23.79.79,0,0,1-.68-.3,1.13,1.13,0,0,1-.21-.66,1.06,1.06,0,0,1,.2-.68,2.44,2.44,0,0,1,.53-.47,3.5,3.5,0,0,1,.95-.45,4.48,4.48,0,0,1,1.32-.18,3.66,3.66,0,0,1,1.12.15,2,2,0,0,1,.77.44,1.84,1.84,0,0,1,.55.94,6.32,6.32,0,0,1,.12,1.32V22a1.1,1.1,0,0,0,.12.57.41.41,0,0,0,.38.18.71.71,0,0,0,.39-.1,1.72,1.72,0,0,0,.33-.24l.18.27a4.78,4.78,0,0,1-.64.43,1.75,1.75,0,0,1-.82.17,1.19,1.19,0,0,1-1.1-.44,1.72,1.72,0,0,1-.28-1A2.63,2.63,0,0,1,224.57,23,3.31,3.31,0,0,1,223.22,23.24Zm.71-.64a1.86,1.86,0,0,0,.94-.28,2.65,2.65,0,0,0,.86-.94V18.25a1.54,1.54,0,0,1-.74.55c-.34.14-.68.3-1,.46a3,3,0,0,0-.92.67,1.74,1.74,0,0,0-.38,1.21,1.5,1.5,0,0,0,.36,1.1A1.27,1.27,0,0,0,223.93,22.6Z"/><path class="cls-3" d="M234.42,14.66a2.73,2.73,0,0,1,1,.16,1.92,1.92,0,0,1,.68.45,1.87,1.87,0,0,1,.43.8,5.48,5.48,0,0,1,.13,1.3v4.27a1.17,1.17,0,0,0,.28.91,1.42,1.42,0,0,0,.93.24v.34l-.83-.05-1.09,0-1,0-.76.05v-.34a1.13,1.13,0,0,0,.82-.24,1.31,1.31,0,0,0,.24-.91V17a5.14,5.14,0,0,0-.08-.91,1.09,1.09,0,0,0-1.22-.93,1.91,1.91,0,0,0-1.62.84,3.41,3.41,0,0,0-.62,2.07v3.56a1.31,1.31,0,0,0,.24.91,1.13,1.13,0,0,0,.82.24v.34l-.76-.05-1,0-1.09,0-.83.05v-.34a1.44,1.44,0,0,0,.93-.24,1.17,1.17,0,0,0,.28-.91v-5a1.76,1.76,0,0,0-.25-1.06,1.16,1.16,0,0,0-1-.35v-.34a8.42,8.42,0,0,0,1,0,8.53,8.53,0,0,0,.89,0,5.17,5.17,0,0,0,.77-.17V16.6a2.82,2.82,0,0,1,1.16-1.52A3.15,3.15,0,0,1,234.42,14.66Zm-2.13-3.82A1.53,1.53,0,0,1,233,11a2.65,2.65,0,0,1,.55.37,5.3,5.3,0,0,0,.51.36,1.21,1.21,0,0,0,1.27,0,1.88,1.88,0,0,0,.58-.65l.23.12a2.39,2.39,0,0,1-.77,1.26,1.81,1.81,0,0,1-1.12.38,1.6,1.6,0,0,1-.75-.16,2.72,2.72,0,0,1-.56-.37,3.75,3.75,0,0,0-.51-.38,1.24,1.24,0,0,0-.62-.16,1.2,1.2,0,0,0-.64.2,2,2,0,0,0-.59.67l-.22-.11a2.27,2.27,0,0,1,.78-1.28A1.86,1.86,0,0,1,232.29,10.84Z"/><path class="cls-3" d="M240.74,23.24a1.74,1.74,0,0,1-2-1.91,1.85,1.85,0,0,1,.32-1.11,2.68,2.68,0,0,1,.84-.72A7.41,7.41,0,0,1,241,19l1.08-.39a3.27,3.27,0,0,0,.84-.43.73.73,0,0,0,.33-.61v-1a2.07,2.07,0,0,0-.2-1,1,1,0,0,0-.53-.47,2.29,2.29,0,0,0-.76-.12,3.81,3.81,0,0,0-.85.11,1.26,1.26,0,0,0-.73.47,1,1,0,0,1,.75,1,.83.83,0,0,1-.25.64,1,1,0,0,1-.66.23.78.78,0,0,1-.68-.3,1.14,1.14,0,0,1-.22-.66,1.06,1.06,0,0,1,.21-.68,2.44,2.44,0,0,1,.53-.47,3.5,3.5,0,0,1,.95-.45,4.48,4.48,0,0,1,1.32-.18,3.66,3.66,0,0,1,1.12.15,2,2,0,0,1,.77.44,1.76,1.76,0,0,1,.54.94,5.67,5.67,0,0,1,.13,1.32V22a1.22,1.22,0,0,0,.11.57.43.43,0,0,0,.39.18.71.71,0,0,0,.39-.1,1.72,1.72,0,0,0,.33-.24l.17.27a3.77,3.77,0,0,1-.64.43,1.68,1.68,0,0,1-.81.17,1.22,1.22,0,0,1-1.11-.44,1.79,1.79,0,0,1-.27-1A2.68,2.68,0,0,1,242.09,23,3.31,3.31,0,0,1,240.74,23.24Zm.7-.64a1.89,1.89,0,0,0,.95-.28,2.65,2.65,0,0,0,.86-.94V18.25a1.59,1.59,0,0,1-.74.55c-.34.14-.68.3-1,.46a2.84,2.84,0,0,0-.92.67,1.74,1.74,0,0,0-.39,1.21,1.5,1.5,0,0,0,.37,1.1A1.26,1.26,0,0,0,241.44,22.6Z"/><path class="cls-3" d="M251.84,14.66a2.65,2.65,0,0,1,1,.16,1.88,1.88,0,0,1,.69.45,1.67,1.67,0,0,1,.41.83,5.64,5.64,0,0,1,.12,1.27v4.27a1.17,1.17,0,0,0,.28.91,1.42,1.42,0,0,0,.93.24v.34l-.83-.05-1.09,0-1,0-.76.05v-.34a1.15,1.15,0,0,0,.82-.24,1.31,1.31,0,0,0,.24-.91V17a6.35,6.35,0,0,0-.07-.91,1,1,0,0,0-1.15-.93,1.71,1.71,0,0,0-1.11.39,2.48,2.48,0,0,0-.77,1,3.67,3.67,0,0,0-.28,1.47v3.56a1.31,1.31,0,0,0,.24.91,1.13,1.13,0,0,0,.82.24v.34l-.76-.05-1,0-1.08,0-.84.05v-.34a1.45,1.45,0,0,0,.94-.24,1.17,1.17,0,0,0,.28-.91v-5a1.69,1.69,0,0,0-.26-1.06,1.13,1.13,0,0,0-1-.35v-.34a8.69,8.69,0,0,0,1,0,8.18,8.18,0,0,0,.88,0,5,5,0,0,0,.78-.17V16.6a3,3,0,0,1,1.14-1.49A2.75,2.75,0,0,1,251.84,14.66Zm4.82,0a2.69,2.69,0,0,1,1,.16,1.92,1.92,0,0,1,.68.45,1.6,1.6,0,0,1,.42.83,5.71,5.71,0,0,1,.11,1.27v4.27a1.2,1.2,0,0,0,.28.91,1.45,1.45,0,0,0,.94.24v.34l-.83-.05-1.09,0-1,0-.76.05v-.34a1.12,1.12,0,0,0,.81-.24,1.31,1.31,0,0,0,.24-.91V17a6.42,6.42,0,0,0-.06-.91,1,1,0,0,0-1.15-.93,1.87,1.87,0,0,0-1.55.83,3.41,3.41,0,0,0-.61,2.07l0-1.49a2.79,2.79,0,0,1,1.17-1.51A3.08,3.08,0,0,1,256.66,14.66Z"/><path class="cls-3" d="M264.69,14.66a3.74,3.74,0,0,1,1.84.45,3.21,3.21,0,0,1,1.31,1.41,5.58,5.58,0,0,1,.48,2.49,5.52,5.52,0,0,1-.48,2.49,3.19,3.19,0,0,1-1.31,1.4,4,4,0,0,1-3.67,0,3.13,3.13,0,0,1-1.31-1.4,5.38,5.38,0,0,1-.49-2.49,5.44,5.44,0,0,1,.49-2.49,3.16,3.16,0,0,1,1.31-1.41A3.76,3.76,0,0,1,264.69,14.66Zm0,.32a1.73,1.73,0,0,0-1.49.94,6.11,6.11,0,0,0-.59,3.09,6,6,0,0,0,.59,3.08,1.66,1.66,0,0,0,3,0,6.06,6.06,0,0,0,.58-3.08,6.13,6.13,0,0,0-.58-3.09A1.74,1.74,0,0,0,264.69,15Z"/><path class="cls-3" d="M272.4,14.66a2.55,2.55,0,0,1,1.09.21,3.52,3.52,0,0,1,.66.38c.35.29.56.1.64-.57h.37c0,.3,0,.65-.05,1.06s0,1,0,1.66h-.37a5,5,0,0,0-.32-1.15,2.36,2.36,0,0,0-.68-.92,1.76,1.76,0,0,0-1.17-.37,1.41,1.41,0,0,0-.94.32,1.12,1.12,0,0,0-.37.92,1.24,1.24,0,0,0,.28.82,3.52,3.52,0,0,0,.76.64l1,.65a10.28,10.28,0,0,1,1.56,1.2,2.12,2.12,0,0,1,.64,1.6,1.93,1.93,0,0,1-.39,1.23,2.37,2.37,0,0,1-1,.75,3.49,3.49,0,0,1-1.35.26,3.45,3.45,0,0,1-.66-.06,2.94,2.94,0,0,1-.6-.16,2.9,2.9,0,0,1-.33-.2l-.33-.24a.2.2,0,0,0-.29,0,1.09,1.09,0,0,0-.19.54H270c0-.34,0-.76,0-1.25s0-1.14,0-1.95h.36a11.1,11.1,0,0,0,.32,1.57,2.17,2.17,0,0,0,.66,1,1.89,1.89,0,0,0,1.25.38,1.58,1.58,0,0,0,.95-.34,1.36,1.36,0,0,0,.47-1.18,1.46,1.46,0,0,0-.51-1.15,9.79,9.79,0,0,0-1.3-.95c-.38-.24-.74-.49-1.08-.73a3.57,3.57,0,0,1-.81-.84,1.92,1.92,0,0,1-.31-1.12,2,2,0,0,1,.32-1.17,1.91,1.91,0,0,1,.88-.67A3,3,0,0,1,272.4,14.66Z"/><path class="cls-3" d="M284.56,14.66a2.84,2.84,0,0,1,2.2.86,3.81,3.81,0,0,1,.8,2.66h-5.65l0-.3H286a5.15,5.15,0,0,0-.13-1.45,2.38,2.38,0,0,0-.5-1.06,1.12,1.12,0,0,0-.89-.41,1.62,1.62,0,0,0-1.3.74,4.31,4.31,0,0,0-.68,2.34l0,.06c0,.16,0,.34,0,.53s0,.38,0,.58a4.66,4.66,0,0,0,.35,1.87,2.9,2.9,0,0,0,.92,1.19,2,2,0,0,0,1.18.41,2.67,2.67,0,0,0,1.33-.35,2.8,2.8,0,0,0,1-1.25l.32.13a3.29,3.29,0,0,1-.58,1,3,3,0,0,1-2.41,1.12,3.61,3.61,0,0,1-2-.53,3.39,3.39,0,0,1-1.26-1.46,4.92,4.92,0,0,1-.44-2.15,6,6,0,0,1,.45-2.43,3.54,3.54,0,0,1,1.26-1.57A3.29,3.29,0,0,1,284.56,14.66Z"/><path class="cls-3" d="M294.15,14.66a2.71,2.71,0,0,1,1,.16,1.84,1.84,0,0,1,.68.45,1.78,1.78,0,0,1,.44.8,5.56,5.56,0,0,1,.12,1.3v4.27a1.2,1.2,0,0,0,.28.91,1.45,1.45,0,0,0,.94.24v.34l-.83-.05-1.09,0-1,0-.76.05v-.34a1.12,1.12,0,0,0,.81-.24,1.31,1.31,0,0,0,.24-.91V17a4.34,4.34,0,0,0-.08-.91,1.13,1.13,0,0,0-.36-.67,1.22,1.22,0,0,0-.85-.26A1.93,1.93,0,0,0,292,16a3.41,3.41,0,0,0-.61,2.07v3.56a1.31,1.31,0,0,0,.24.91,1.12,1.12,0,0,0,.81.24v.34l-.76-.05-1,0-1.09,0-.83.05v-.34a1.45,1.45,0,0,0,.94-.24,1.2,1.2,0,0,0,.28-.91v-5a1.76,1.76,0,0,0-.26-1.06,1.13,1.13,0,0,0-1-.35v-.34a8.84,8.84,0,0,0,1.88,0,5.62,5.62,0,0,0,.78-.17V16.6a2.82,2.82,0,0,1,1.16-1.52A3.1,3.1,0,0,1,294.15,14.66Z"/><path class="cls-3" d="M304.68,12.23V14.9H307v.32h-2.36v6.19a1.61,1.61,0,0,0,.27,1.06,1,1,0,0,0,.75.3,1.08,1.08,0,0,0,.83-.39,3.25,3.25,0,0,0,.61-1.32l.32.08a3.76,3.76,0,0,1-.63,1.57,1.68,1.68,0,0,1-1.45.64,2.58,2.58,0,0,1-.9-.14,1.91,1.91,0,0,1-.62-.39,2,2,0,0,1-.49-.88,5.52,5.52,0,0,1-.13-1.36V15.22H301.7V14.9h1.54V12.45c.26,0,.52,0,.76-.06A3.39,3.39,0,0,0,304.68,12.23Z"/><path class="cls-3" d="M315,14.71V21.4a1.78,1.78,0,0,0,.26,1.06,1.13,1.13,0,0,0,.95.34v.34c-.33,0-.66-.05-1-.05a8.53,8.53,0,0,0-.89.05,3,3,0,0,0-.77.18V21.43A2.75,2.75,0,0,1,311,23.35a2.6,2.6,0,0,1-1-.16,1.88,1.88,0,0,1-.69-.45,1.77,1.77,0,0,1-.42-.83,6.37,6.37,0,0,1-.11-1.27v-4a1.76,1.76,0,0,0-.25-1.06,1.16,1.16,0,0,0-1-.35v-.34a8.42,8.42,0,0,0,1,0,8.53,8.53,0,0,0,.89,0,5.17,5.17,0,0,0,.77-.17V21a5.17,5.17,0,0,0,.07.91,1.09,1.09,0,0,0,.32.67,1.13,1.13,0,0,0,.83.26A1.85,1.85,0,0,0,313,22a3.46,3.46,0,0,0,.61-2.06V16.63a1.76,1.76,0,0,0-.26-1.06,1.13,1.13,0,0,0-1-.35v-.34a8.84,8.84,0,0,0,1.88,0A5.62,5.62,0,0,0,315,14.71Z"/><path class="cls-3" d="M156.49,56a3.48,3.48,0,0,1-4-3.81,3.67,3.67,0,0,1,.65-2.22,5.11,5.11,0,0,1,1.68-1.44,14.94,14.94,0,0,1,2.16-1c.76-.27,1.48-.53,2.16-.79a6.56,6.56,0,0,0,1.68-.86,1.44,1.44,0,0,0,.66-1.22v-2a4.18,4.18,0,0,0-.4-2,2,2,0,0,0-1.07-.94,4.47,4.47,0,0,0-1.51-.24,7.16,7.16,0,0,0-1.71.22,2.52,2.52,0,0,0-1.45.93,2,2,0,0,1,1,.64,1.91,1.91,0,0,1,.45,1.31,1.63,1.63,0,0,1-.51,1.27,1.87,1.87,0,0,1-1.31.46,1.57,1.57,0,0,1-1.36-.59,2.21,2.21,0,0,1-.44-1.33,2,2,0,0,1,.42-1.34,5.24,5.24,0,0,1,1.06-1,6.59,6.59,0,0,1,1.9-.88,8.64,8.64,0,0,1,2.64-.37,7.32,7.32,0,0,1,2.24.3,4.21,4.21,0,0,1,1.54.88,3.62,3.62,0,0,1,1.08,1.87,11.9,11.9,0,0,1,.26,2.64v8.9a2.39,2.39,0,0,0,.22,1.14.84.84,0,0,0,.77.36,1.57,1.57,0,0,0,.79-.19,4,4,0,0,0,.65-.48l.35.55a9.31,9.31,0,0,1-1.28.84,3.27,3.27,0,0,1-1.63.34,2.45,2.45,0,0,1-2.21-.86,3.69,3.69,0,0,1-.54-2,5.39,5.39,0,0,1-2.32,2.27A6.46,6.46,0,0,1,156.49,56Zm1.4-1.28a3.66,3.66,0,0,0,1.89-.56,5.37,5.37,0,0,0,1.73-1.87V46A3.25,3.25,0,0,1,160,47.14c-.67.27-1.36.58-2.08.91a5.74,5.74,0,0,0-1.84,1.34,3.5,3.5,0,0,0-.77,2.42,2.94,2.94,0,0,0,.74,2.19A2.5,2.5,0,0,0,157.89,54.72Z"/><path class="cls-3" d="M173.54,38.94V58.59a1.92,1.92,0,0,0,.82,1.84,4.54,4.54,0,0,0,2.25.47v.67l-2-.08c-.83,0-1.72-.05-2.65-.05-.67,0-1.32,0-2,.05l-1.49.08V60.9a2.47,2.47,0,0,0,1.63-.42,2,2,0,0,0,.48-1.57V42.78a3.56,3.56,0,0,0-.51-2.12,2.26,2.26,0,0,0-1.92-.69V39.3q1,.09,2,.09a12.79,12.79,0,0,0,1.78-.11A8.62,8.62,0,0,0,173.54,38.94Zm5.12-.09a5.33,5.33,0,0,1,4.24,2,9,9,0,0,1,1.71,5.9,13.63,13.63,0,0,1-.75,4.48,8.07,8.07,0,0,1-2.35,3.57,6.21,6.21,0,0,1-4.22,1.39,4.71,4.71,0,0,1-2.61-.7,3.54,3.54,0,0,1-1.49-1.7l.32-.44a4.06,4.06,0,0,0,1.3,1.5,4,4,0,0,0,4.91-.51,6.55,6.55,0,0,0,1.39-3,19.68,19.68,0,0,0,.4-4.15,17.29,17.29,0,0,0-.42-4.19,5,5,0,0,0-1.24-2.43,2.87,2.87,0,0,0-2-.8A3.92,3.92,0,0,0,175,41.1,6.73,6.73,0,0,0,173.32,45l-.39-.44a6.84,6.84,0,0,1,1.94-4.23A5.33,5.33,0,0,1,178.66,38.85Z"/><path class="cls-3" d="M197.32,38.85a3.24,3.24,0,0,1,1.52.35,2.83,2.83,0,0,1,1,.91,2.25,2.25,0,0,1,.37,1.27,2.14,2.14,0,0,1-.5,1.4,1.6,1.6,0,0,1-1.32.61,1.78,1.78,0,0,1-1.19-.43,1.53,1.53,0,0,1-.51-1.23,1.61,1.61,0,0,1,.34-1,2.71,2.71,0,0,1,.75-.69.78.78,0,0,0-.67-.32,3.18,3.18,0,0,0-2.34,1,7.19,7.19,0,0,0-1.55,2.41,7,7,0,0,0-.56,2.6v6.78a2.22,2.22,0,0,0,.91,2.1,5,5,0,0,0,2.48.52v.68c-.49,0-1.18-.05-2.08-.08s-1.85-.05-2.85-.05c-.72,0-1.44,0-2.16.05s-1.25,0-1.61.08V55.1a2.89,2.89,0,0,0,1.87-.48,2.34,2.34,0,0,0,.56-1.82v-10a3.56,3.56,0,0,0-.51-2.12,2.28,2.28,0,0,0-1.92-.69V39.3q1,.09,2,.09a12.79,12.79,0,0,0,1.78-.11,8.62,8.62,0,0,0,1.55-.34v4a8.61,8.61,0,0,1,1-1.87,6.09,6.09,0,0,1,1.58-1.58A3.51,3.51,0,0,1,197.32,38.85Z"/><path class="cls-3" d="M209.06,38.85a5.69,5.69,0,0,1,4.4,1.71q1.59,1.71,1.59,5.33h-11.3l0-.61H212a10.43,10.43,0,0,0-.25-2.9,5.05,5.05,0,0,0-1-2.12,2.22,2.22,0,0,0-1.78-.8,3.24,3.24,0,0,0-2.6,1.47A8.6,8.6,0,0,0,205,45.6l.09.13q-.06.48-.09,1.05c0,.39,0,.77,0,1.16a9,9,0,0,0,.71,3.74,5.66,5.66,0,0,0,1.84,2.38,3.93,3.93,0,0,0,2.35.82,5.21,5.21,0,0,0,2.66-.7,5.32,5.32,0,0,0,2-2.5l.64.26A6.55,6.55,0,0,1,214,54a6,6,0,0,1-4.83,2.24,7.19,7.19,0,0,1-3.95-1,6.9,6.9,0,0,1-2.53-2.93,10,10,0,0,1-.88-4.3,11.9,11.9,0,0,1,.9-4.85A7.15,7.15,0,0,1,205.25,40,6.69,6.69,0,0,1,209.06,38.85Z"/><path class="cls-3" d="M228.55,38.85a5.65,5.65,0,0,1,2,.32,3.53,3.53,0,0,1,2.23,2.49,10.59,10.59,0,0,1,.25,2.6V52.8a2.34,2.34,0,0,0,.56,1.82,2.88,2.88,0,0,0,1.87.48v.68c-.36,0-.91-.05-1.66-.08s-1.47-.05-2.18-.05-1.39,0-2.06.05-1.18,0-1.52.08V55.1a2.25,2.25,0,0,0,1.63-.48,2.58,2.58,0,0,0,.48-1.82V43.55a9.34,9.34,0,0,0-.16-1.82,2.38,2.38,0,0,0-.72-1.35,2.46,2.46,0,0,0-1.71-.51,3.85,3.85,0,0,0-3.25,1.68,6.83,6.83,0,0,0-1.23,4.15v7.1a2.58,2.58,0,0,0,.48,1.82,2.25,2.25,0,0,0,1.63.48v.68c-.34,0-.85-.05-1.52-.08s-1.36-.05-2.06-.05-1.43,0-2.18.05-1.3,0-1.66.08V55.1a2.88,2.88,0,0,0,1.87-.48,2.34,2.34,0,0,0,.56-1.82v-10a3.56,3.56,0,0,0-.51-2.12A2.26,2.26,0,0,0,217.8,40V39.3q1,.09,2,.09a12.79,12.79,0,0,0,1.78-.11,8.62,8.62,0,0,0,1.55-.34v3.78a5.55,5.55,0,0,1,2.32-3A6.16,6.16,0,0,1,228.55,38.85Z"/><path class="cls-3" d="M245.06,38.85a5.4,5.4,0,0,1,2.64.67,3.46,3.46,0,0,1,1.65,2.3l-.42.32a3.58,3.58,0,0,0-1.39-2,4.06,4.06,0,0,0-2.22-.61,3.7,3.7,0,0,0-3.15,2q-1.28,2-1.24,6a15.79,15.79,0,0,0,.5,4.31,5.24,5.24,0,0,0,1.47,2.56,3.54,3.54,0,0,0,2.39.84,3.29,3.29,0,0,0,2.43-1.15A5.66,5.66,0,0,0,249,50.72l.38.45a6,6,0,0,1-1.55,3.74,4.67,4.67,0,0,1-3.5,1.31,6.23,6.23,0,0,1-3.47-1,6,6,0,0,1-2.28-2.88,12.92,12.92,0,0,1-.78-4.83,10.49,10.49,0,0,1,1-4.85,6.82,6.82,0,0,1,6.22-3.85Zm6.72-8.16v21.6a3.51,3.51,0,0,0,.53,2.13,2.26,2.26,0,0,0,1.9.68v.68a18.75,18.75,0,0,0-2-.1,14.58,14.58,0,0,0-1.78.1,6.64,6.64,0,0,0-1.55.35V34.53a3.59,3.59,0,0,0-.51-2.13,2.26,2.26,0,0,0-1.92-.69V31c.68.06,1.34.1,2,.1a12.77,12.77,0,0,0,1.78-.12A8.64,8.64,0,0,0,251.78,30.69Z"/><path class="cls-3" d="M261.45,38.94V52.8a2.3,2.3,0,0,0,.56,1.82,2.86,2.86,0,0,0,1.87.48v.68c-.37,0-.91-.05-1.65-.08s-1.48-.05-2.22-.05-1.47,0-2.21.05-1.3,0-1.67.08V55.1a2.91,2.91,0,0,0,1.88-.48,2.34,2.34,0,0,0,.56-1.82v-10a3.55,3.55,0,0,0-.52-2.12,2.26,2.26,0,0,0-1.92-.69V39.3c.69.06,1.35.09,2,.09a12.55,12.55,0,0,0,1.77-.11A8.55,8.55,0,0,0,261.45,38.94Zm-1.67-7.64a2.07,2.07,0,0,1,2.05,2,2.08,2.08,0,0,1-2.05,2,2.08,2.08,0,0,1-2-2,2.07,2.07,0,0,1,2-2Z"/><path class="cls-3" d="M279,39.14,269.7,55.3h3.52a4.54,4.54,0,0,0,2.23-.52A3.8,3.8,0,0,0,277,53.14a8.08,8.08,0,0,0,.7-3h.74c0,1.37,0,2.52,0,3.46s.05,1.71.09,2.3c-.94,0-1.91-.07-2.92-.09l-3,0c-1.07,0-2.15,0-3.26,0s-2.18.07-3.2.12l9.25-16.16h-3.52a4.94,4.94,0,0,0-2.36.51,3.27,3.27,0,0,0-1.44,1.65,9.45,9.45,0,0,0-.65,3h-.74c0-1.39,0-2.55,0-3.47s-.05-1.69-.1-2.29c.94,0,1.92.07,2.93.09s2,0,3,0,2.15,0,3.26,0Z"/><path class="cls-3" d="M285.67,56a3.89,3.89,0,0,1-3-1,4,4,0,0,1-.95-2.77,3.61,3.61,0,0,1,.66-2.22A4.92,4.92,0,0,1,284,48.53a14,14,0,0,1,2.16-1l2.16-.79a6.91,6.91,0,0,0,1.68-.86,1.46,1.46,0,0,0,.65-1.22v-2a4.18,4.18,0,0,0-.4-2,2,2,0,0,0-1.07-.94,4.45,4.45,0,0,0-1.5-.24,7,7,0,0,0-1.71.22,2.55,2.55,0,0,0-1.46.93,1.9,1.9,0,0,1,1.5,2,1.63,1.63,0,0,1-.51,1.27,1.87,1.87,0,0,1-1.31.46,1.58,1.58,0,0,1-1.36-.59,2.2,2.2,0,0,1-.43-1.33,2.1,2.1,0,0,1,.41-1.34,5.24,5.24,0,0,1,1.06-1,6.59,6.59,0,0,1,1.9-.88,8.64,8.64,0,0,1,2.64-.37,7.32,7.32,0,0,1,2.24.3,4.21,4.21,0,0,1,1.54.88,3.64,3.64,0,0,1,1.09,1.87,12,12,0,0,1,.25,2.64v8.9a2.26,2.26,0,0,0,.23,1.14.83.83,0,0,0,.77.36,1.53,1.53,0,0,0,.78-.19,4.58,4.58,0,0,0,.66-.48l.35.55a10.7,10.7,0,0,1-1.28.84,3.32,3.32,0,0,1-1.63.34,2.43,2.43,0,0,1-2.21-.86,3.61,3.61,0,0,1-.55-2,5.33,5.33,0,0,1-2.32,2.27A6.46,6.46,0,0,1,285.67,56Zm1.41-1.28a3.66,3.66,0,0,0,1.89-.56,5.44,5.44,0,0,0,1.72-1.87V46a3.22,3.22,0,0,1-1.48,1.12c-.68.27-1.37.58-2.08.91a5.64,5.64,0,0,0-1.84,1.34,3.45,3.45,0,0,0-.77,2.42,2.94,2.94,0,0,0,.73,2.19A2.51,2.51,0,0,0,287.08,54.72Z"/><path class="cls-3" d="M295.88,61.79v-.48a3.45,3.45,0,0,0,3-1.71,8.48,8.48,0,0,0,1-4.43V42.78a3.56,3.56,0,0,0-.51-2.12,2.26,2.26,0,0,0-1.92-.69V39.3c.68.06,1.35.09,2,.09a12.65,12.65,0,0,0,1.77-.11,8.44,8.44,0,0,0,1.55-.34V52.1a17.43,17.43,0,0,1-.52,4.41,7.53,7.53,0,0,1-1.78,3.33,6.14,6.14,0,0,1-4.54,1.95ZM301,31.3a2,2,0,0,1,2,2,2.07,2.07,0,0,1-2,2,2.08,2.08,0,0,1-2.05-2,2.07,2.07,0,0,1,2.05-2Z"/><path class="cls-3" d="M314.28,38.85a5.72,5.72,0,0,1,4.4,1.71q1.57,1.71,1.58,5.33H309l0-.61h8.26a10.42,10.42,0,0,0-.26-2.9,4.94,4.94,0,0,0-1-2.12,2.2,2.2,0,0,0-1.77-.8,3.28,3.28,0,0,0-2.61,1.47,8.69,8.69,0,0,0-1.36,4.67l.1.13a10.42,10.42,0,0,0-.1,1.05c0,.39,0,.77,0,1.16a9,9,0,0,0,.7,3.74,5.74,5.74,0,0,0,1.84,2.38,4,4,0,0,0,2.35.82,5.21,5.21,0,0,0,2.66-.7,5.39,5.39,0,0,0,2.05-2.5l.64.26a6.76,6.76,0,0,1-1.15,2,6.21,6.21,0,0,1-2,1.62,6,6,0,0,1-2.82.62,7.21,7.21,0,0,1-3.95-1,6.9,6.9,0,0,1-2.53-2.93,10.1,10.1,0,0,1-.88-4.3,11.9,11.9,0,0,1,.9-4.85A7.17,7.17,0,0,1,310.47,40,6.69,6.69,0,0,1,314.28,38.85Z"/><rect class="cls-3" x="128.61" y="2" width="2.94" height="60"/></g></g></svg>