<svg xmlns="http://www.w3.org/2000/svg" viewBox="0 0 155.29 141.86"><defs><style>.cls-1{opacity:0.85;}.cls-2{fill:none;stroke:#50a9d0;stroke-linecap:round;stroke-linejoin:round;}</style></defs><title>reglas</title><g id="Capa_2" data-name="Capa 2"><g id="Capa_1-2" data-name="Capa 1"><g class="cls-1"><rect class="cls-2" x="110.94" y="7.79" width="31.96" height="131.75" transform="translate(15.8 -22.19) rotate(10.65)"/><line class="cls-2" x1="151.87" y1="27.41" x2="136.17" y2="24.46"/><line class="cls-2" x1="146.23" y1="57.41" x2="130.53" y2="54.46"/><line class="cls-2" x1="140.59" y1="87.41" x2="124.88" y2="84.46"/><line class="cls-2" x1="134.95" y1="117.41" x2="119.24" y2="114.46"/><line class="cls-2" x1="150" y1="37.34" x2="142.15" y2="35.87"/><line class="cls-2" x1="148.12" y1="47.38" x2="140.27" y2="45.9"/><line class="cls-2" x1="144.35" y1="67.39" x2="136.5" y2="65.92"/><line class="cls-2" x1="142.46" y1="77.43" x2="134.61" y2="75.95"/><line class="cls-2" x1="138.7" y1="97.45" x2="130.85" y2="95.97"/><line class="cls-2" x1="136.81" y1="107.48" x2="128.96" y2="106"/><line class="cls-2" x1="85.71" y1="46.03" x2="76.29" y2="44.26"/><line class="cls-2" x1="80.06" y1="76.03" x2="70.65" y2="74.26"/><line class="cls-2" x1="74.42" y1="106.03" x2="65" y2="104.26"/><line class="cls-2" x1="89.48" y1="25.96" x2="84.77" y2="25.07"/><line class="cls-2" x1="87.59" y1="35.99" x2="82.88" y2="35.11"/><line class="cls-2" x1="83.83" y1="56.01" x2="79.12" y2="55.13"/><line class="cls-2" x1="81.94" y1="66.05" x2="77.23" y2="65.16"/><line class="cls-2" x1="78.18" y1="86.06" x2="73.47" y2="85.18"/><line class="cls-2" x1="72.44" y1="116.55" x2="67.73" y2="115.67"/><line class="cls-2" x1="76.29" y1="96.1" x2="71.58" y2="95.21"/><polygon class="cls-2" points="0.5 116.92 94.27 0.5 69.92 129.98 0.5 116.92"/><polygon class="cls-2" points="35.6 103.97 61.25 72.13 54.59 107.54 35.6 103.97"/></g></g></g></svg>