<svg xmlns="http://www.w3.org/2000/svg" viewBox="0 0 97.02 118.77"><defs><style>.cls-1{opacity:0.85;}.cls-2{fill:none;stroke:#50a9d0;stroke-linecap:round;stroke-linejoin:round;}</style></defs><title>tubos</title><g id="Capa_2" data-name="Capa 2"><g id="Capa_1-2" data-name="Capa 1"><g class="cls-1"><path class="cls-2" d="M8.86,22.28a4.26,4.26,0,1,1-5.25-3A4.26,4.26,0,0,1,8.86,22.28Z"/><path class="cls-2" d="M20,3.61A4.26,4.26,0,1,1,14.76.66,4.26,4.26,0,0,1,20,3.61Z"/><path class="cls-2" d="M73.09,8.72a4.26,4.26,0,1,1-5.24-3A4.25,4.25,0,0,1,73.09,8.72Z"/><rect class="cls-2" x="4.05" y="36.32" width="29.93" height="8.28" rx="3.34" transform="translate(-9.91 6.38) rotate(-15.15)"/><path class="cls-2" d="M36.67,66.55l-6.92-24.7L10.56,47.23l6.92,24.69.16,39.31a9.65,9.65,0,0,0,11.89,6.69l20.71-5.8a9.65,9.65,0,0,0,6.69-11.88Z"/><path class="cls-2" d="M17.55,89.65s4.69-5.27,14.33-3.22a10.91,10.91,0,0,0,12.83-6.5"/><rect class="cls-2" x="53.34" y="22.53" width="29.93" height="8.28" rx="3.34" transform="translate(-4.6 18.78) rotate(-15.15)"/><path class="cls-2" d="M77,94.57A10,10,0,1,0,96.15,89.2L79,28.06,59.85,33.43Z"/><path class="cls-2" d="M77,94.57A10,10,0,1,0,96.15,89.2L79,28.06,59.85,33.43Z"/><path class="cls-2" d="M71,73.26a17.28,17.28,0,0,1,10.44-.7,10.68,10.68,0,0,0,9.49-2"/></g></g></g></svg>