<svg xmlns="http://www.w3.org/2000/svg" viewBox="0 0 31.55 22.78"><defs><style>.cls-1{fill:none;stroke:#fff;stroke-miterlimit:10;stroke-width:2px;}</style></defs><title>youtube</title><g id="Capa_2" data-name="Capa 2"><g id="Capa_1-2" data-name="Capa 1"><path class="cls-1" d="M29.94,4.25a3.7,3.7,0,0,0-2.62-2.63C25,1,15.78,1,15.78,1S6.54,1,4.23,1.62A3.71,3.71,0,0,0,1.62,4.25,38.81,38.81,0,0,0,1,11.41a38.81,38.81,0,0,0,.62,7.16,3.66,3.66,0,0,0,2.61,2.59c2.31.62,11.55.62,11.55.62s9.24,0,11.54-.62a3.65,3.65,0,0,0,2.62-2.59,39.43,39.43,0,0,0,.61-7.16A39.43,39.43,0,0,0,29.94,4.25ZM12.75,15.81V7l7.73,4.39-7.73,4.4Z"/></g></g></svg>